<?xml version="1.0" encoding="UTF-8" standalone="no"?>
<!-- Created with Inkscape (http://www.inkscape.org/) -->

<svg
   xmlns:dc="http://purl.org/dc/elements/1.1/"
   xmlns:cc="http://creativecommons.org/ns#"
   xmlns:rdf="http://www.w3.org/1999/02/22-rdf-syntax-ns#"
   xmlns:svg="http://www.w3.org/2000/svg"
   xmlns="http://www.w3.org/2000/svg"
   xmlns:sodipodi="http://sodipodi.sourceforge.net/DTD/sodipodi-0.dtd"
   xmlns:inkscape="http://www.inkscape.org/namespaces/inkscape"
   width="210mm"
   height="297mm"
   viewBox="0 0 744.09448819 1052.3622047"
   id="svg2"
   version="1.1"
   inkscape:version="0.91 r13725"
   sodipodi:docname="cat facts logo.svg"
   inkscape:export-filename="C:\Users\Eric\Documents\Cat Facts\images\cat facts logo2.png"
   inkscape:export-xdpi="131.17819"
   inkscape:export-ydpi="131.17819">
  <defs
     id="defs4" />
  <sodipodi:namedview
     id="base"
     pagecolor="#ffffff"
     bordercolor="#666666"
     borderopacity="1.0"
     inkscape:pageopacity="0.0"
     inkscape:pageshadow="2"
     inkscape:zoom="1.4"
     inkscape:cx="297.70772"
     inkscape:cy="658.45077"
     inkscape:document-units="px"
     inkscape:current-layer="layer1"
     showgrid="false"
     inkscape:window-width="1920"
     inkscape:window-height="1017"
     inkscape:window-x="-8"
     inkscape:window-y="-8"
     inkscape:window-maximized="1" />
  <metadata
     id="metadata7">
    <rdf:RDF>
      <cc:Work
         rdf:about="">
        <dc:format>image/svg+xml</dc:format>
        <dc:type
           rdf:resource="http://purl.org/dc/dcmitype/StillImage" />
      </cc:Work>
    </rdf:RDF>
  </metadata>
  <g
     inkscape:label="Layer 1"
     inkscape:groupmode="layer"
     id="layer1">
    <path
       id="path3360"
       d="m 179.15888,242.10546 c -3.16843,0.16131 -6.26623,0.89251 -9.34584,1.60397 -5.17764,1.28324 -10.03035,3.49684 -14.81872,5.79573 -0.82005,0.45053 -3.28019,1.80221 -2.46017,1.35161 1.24331,-0.68322 2.37906,-1.61651 3.73006,-2.04942 0.88091,-0.28228 -1.54323,1.02289 -2.27845,1.58426 -1.47044,1.12274 -2.78391,2.32448 -4.00068,3.72062 -0.61474,0.70537 -1.15298,1.47394 -1.72947,2.2109 -3.91494,5.60896 -5.25577,11.59487 -6.46871,18.18693 -0.52224,3.67326 -1.12602,7.39787 -0.86008,11.12317 0.1668,2.33658 0.39099,2.89502 0.91976,5.17934 1.70377,5.17776 5.01116,9.53552 8.92615,13.2601 0.84649,0.80532 1.74859,1.55007 2.62289,2.32511 4.09967,3.35374 8.77104,5.81409 13.84939,7.2741 1.87738,0.52074 3.80726,0.62805 5.74215,0.59567 1.31008,-0.0356 2.62028,-0.06 3.93073,-0.0763 1.07543,0.097 2.03922,-0.0941 3.07718,-0.30395 0.54826,-0.038 1.00831,-0.29721 1.44436,-0.59837 0.10023,-0.0693 0.42084,-0.24563 0.31531,-0.18476 -2.02648,1.16899 -4.05215,2.33942 -6.07822,3.50913 1.17928,-0.95557 2.49879,-1.71445 3.75369,-2.56381 0,0 6.86032,-2.69716 6.86032,-2.69716 l 0,0 c -1.21551,0.85606 -2.50013,1.60753 -3.69554,2.48753 -2.77237,1.65091 -5.31453,3.96116 -8.53514,4.53739 -1.03846,0.19651 -2.08123,0.19015 -3.1361,0.18064 -1.31036,0.017 -2.62032,0.0553 -3.93076,0.0652 -1.95173,-0.0302 -3.88385,-0.25751 -5.75229,-0.85771 -5.05229,-1.66682 -9.71705,-4.25309 -13.81558,-7.66162 -0.881,-0.78963 -1.78879,-1.55035 -2.64301,-2.36888 -3.99223,-3.82546 -7.41187,-8.25678 -9.21952,-13.53438 -0.55208,-2.28607 -0.81015,-2.96208 -1.00227,-5.30513 -0.31028,-3.7841 0.36702,-7.55809 0.8698,-11.29184 1.2034,-6.44146 2.55295,-12.93528 6.2828,-18.46705 1.49839,-2.01628 1.7834,-2.56867 3.57991,-4.32088 4.35213,-4.24481 10.02105,-6.81739 15.26951,-9.74724 4.84263,-2.29254 9.75826,-4.47629 14.99008,-5.73137 3.15266,-0.72869 6.32262,-1.42111 9.5605,-1.6335 0,0 -5.95404,4.40195 -5.95404,4.40195 z"
       inkscape:connector-curvature="0"
       style="fill:#008080" />
    <path
       id="path3362"
       d="m 199.63222,319.93445 c 0.51448,-2.31481 1.10901,-4.61016 1.62465,-6.92495 0.4857,-2.33932 0.86432,-4.69708 1.26975,-7.05096 0.40744,-1.86621 0.68106,-3.75605 1.04045,-5.63115 0.27,-1.65453 0.42608,-3.32087 0.73325,-4.96997 0.56277,-2.5448 1.20197,-5.07168 1.78452,-7.6118 0.69462,-3.23535 1.58869,-6.41704 2.58946,-9.5691 1.18623,-3.81415 2.43764,-7.60598 3.73229,-11.38456 1.1804,-3.73558 2.58773,-7.39072 4.17546,-10.97054 1.39678,-2.94885 2.89725,-5.8452 4.42656,-8.72681 1.11446,-2.1357 2.22284,-4.27098 3.45989,-6.33861 0.97042,-1.49066 1.76717,-3.08947 2.76425,-4.56207 2.28846,-3.35933 2.86759,-2.66188 8.19102,-5.56266 0.1462,0.11541 0.3152,0.20674 0.43863,0.34625 0.63986,0.72324 1.02441,1.801 1.42463,2.655 0.67494,1.44023 0.85302,1.84729 1.53854,3.36018 2.43764,5.18339 5.17964,10.21889 7.86467,15.27702 3.52212,6.30898 6.73766,12.77399 9.95062,19.24301 2.54139,5.0361 4.82991,10.18469 6.97944,15.39783 1.38304,3.54424 2.75942,7.0922 4.20828,10.61024 0.76784,1.98319 1.82925,3.83219 2.68764,5.77337 0.40902,0.85324 0.87227,1.6833 1.24484,2.55304 0.33601,0.65657 0.69685,1.30363 0.98899,1.98144 0.11646,0.61671 0.53446,1.05123 0.84506,1.5706 0,0 -6.44755,3.73756 -6.44755,3.73756 l 0,0 c -0.32788,-0.54247 -0.78046,-1.01535 -0.89559,-1.66285 -0.28214,-0.68302 -0.6592,-1.32439 -0.98842,-1.98536 -0.35517,-0.87548 -0.82398,-1.70352 -1.20329,-2.56948 -0.81138,-1.96968 -1.84521,-3.84377 -2.59471,-5.84142 -1.40965,-3.53878 -2.76308,-7.10036 -4.11806,-10.66027 -2.08487,-5.22638 -4.32519,-10.38237 -6.81563,-15.43021 -3.18231,-6.47658 -6.38939,-12.93696 -9.96114,-19.21132 -2.71571,-5.05425 -5.50343,-10.07467 -8.03934,-15.22222 -0.88421,-1.8444 -0.74889,-1.59312 -1.61703,-3.29533 -0.18444,-0.36164 -0.84912,-1.91665 -1.27878,-2.18114 -0.0515,-0.0316 -0.11768,0.0273 -0.17652,0.041 2.05788,-1.19051 4.12219,-2.37 6.17366,-3.57153 0.0934,-0.0547 -0.2085,0.0684 -0.29754,0.12994 -0.54855,0.37894 -0.87642,1.07971 -1.29954,1.57299 -1.09774,1.41142 -1.858,3.04047 -2.84958,4.52569 -1.22685,2.07895 -2.4229,4.1703 -3.51321,6.32604 -1.54706,2.87451 -3.06494,5.76309 -4.48937,8.70097 -1.6242,3.55642 -3.0696,7.19393 -4.24085,10.92636 -1.2865,3.76766 -2.5392,7.5448 -3.70294,11.35235 -0.98816,3.13142 -1.8964,6.28403 -2.58208,9.49801 -0.56371,2.52014 -1.17072,5.03115 -1.71549,7.55463 -0.33847,1.64203 -0.48904,3.30554 -0.73458,4.96199 -0.33625,1.88207 -0.67042,3.76645 -1.07502,5.63569 -0.39607,2.37112 -0.81111,4.73805 -1.28694,7.09477 -0.47585,2.30112 -1.10801,4.56955 -1.52347,6.88196 0,0 -6.68988,3.22641 -6.68988,3.22641 z"
       inkscape:connector-curvature="0"
       style="fill:#aa0000" />
    <path
       id="path3364"
       d="m 214.42631,277.26214 c 1.68304,0.21224 3.37706,0.31286 5.07144,0.37376 1.76555,0.13581 3.51498,-0.0583 5.27246,-0.19456 2.048,-0.21879 4.08839,-0.48062 6.1464,-0.61747 1.94034,-0.0897 3.87328,-0.12273 5.80699,-0.30984 1.83804,-0.11088 3.62288,-0.5717 5.41588,-0.95685 1.1967,-0.26418 2.41768,-0.35228 3.63923,-0.38813 1.00466,-0.0183 2.00956,-0.0106 3.01433,-0.007 0.99702,0.003 1.99404,0.004 2.99107,0.005 0.99992,4.8e-4 1.99983,4.3e-4 2.99975,4.3e-4 1.21273,0.002 2.42547,0.005 3.6382,0.008 1.49689,0.005 2.9938,0.003 4.49068,-10e-4 0.21163,-6e-4 0.42326,-0.001 0.63489,-0.002 0,0 -5.99998,4.35924 -5.99998,4.35924 l 0,0 c -0.20999,-5.9e-4 -0.41996,-0.001 -0.62995,-0.002 -1.49589,-0.004 -2.9918,-0.006 -4.4877,-10e-4 -1.22018,0.004 -2.44035,0.006 -3.66052,0.008 -1.00006,-3e-5 -2.00012,-5e-5 -3.00017,-7e-4 -0.99737,-7e-4 -1.99473,-0.003 -2.9921,-0.006 -0.99748,-0.002 -1.99547,-0.008 -2.99237,0.032 -1.18874,0.0642 -2.37147,0.19974 -3.53369,0.46655 -1.80057,0.38625 -3.60792,0.76086 -5.45121,0.87211 -1.932,0.16543 -3.8692,0.16251 -5.80376,0.29019 -2.05557,0.16012 -4.09319,0.46076 -6.14758,0.62601 -1.78228,0.14909 -3.56178,0.27378 -5.35096,0.13921 -1.71323,-0.0854 -3.42211,-0.22517 -5.12913,-0.39426 0,0 6.0578,-4.29965 6.0578,-4.29965 z"
       inkscape:connector-curvature="0"
       style="fill:#aa0000" />
    <path
       id="path3366"
       d="m 312.72445,236.28972 c 0.29283,3.91171 0.49807,7.82763 0.64562,11.74763 0.0488,6.43465 0.39681,12.8564 0.81909,19.27556 0.53561,9.32055 1.95829,18.5546 3.34956,27.77637 0.92868,5.71914 1.74769,11.46437 2.82033,17.15923 0.29085,0.61693 0.16034,1.87671 0.63145,2.43661 0,0 -6.48028,3.72901 -6.48028,3.72901 l 0,0 c -0.40043,-0.85088 -0.36486,-1.84924 -0.58945,-2.74749 -0.878,-5.7771 -1.54372,-11.58797 -2.46964,-17.35894 -1.41468,-9.22907 -2.72848,-18.48413 -3.41984,-27.79996 -0.52124,-6.38872 -0.99749,-12.77909 -1.0335,-19.19277 -0.15106,-3.8762 -0.3617,-7.74936 -0.84722,-11.60027 0,0 6.57388,-3.42498 6.57388,-3.42498 z"
       inkscape:connector-curvature="0"
       style="fill:#008000" />
    <path
       id="path3368"
       d="m 299.97528,238.66388 c 2.59852,0.15628 5.17153,-0.0785 7.75006,-0.36426 2.75986,-0.36126 5.47131,-1.00456 8.22899,-1.3825 1.83162,-0.21682 3.67813,-0.23801 5.52008,-0.25588 1.40317,-0.004 2.80635,-0.003 4.20953,-0.002 0,0 -6.00649,4.3612 -6.00649,4.3612 l 0,0 c -1.3926,-0.008 -2.78525,-0.0209 -4.17785,-0.008 -1.81602,0.0205 -3.63604,0.0653 -5.4378,0.31442 -2.73792,0.40026 -5.44416,0.99166 -8.19183,1.32615 -2.62872,0.28555 -5.2529,0.42246 -7.8984,0.37346 0,0 6.00371,-4.36194 6.00371,-4.36194 z"
       inkscape:connector-curvature="0"
       style="fill:#008000" />
    <path
       id="path3370"
       d="m 352.19483,272.70313 c -0.0635,3.10839 -0.0784,6.21769 -0.10084,9.3266 -0.30926,7.80847 -0.82681,15.60772 -1.1458,23.41672 -0.24233,7.44327 -0.48293,14.89019 -0.19719,22.33459 0.2032,4.5025 0.54399,8.99721 0.78742,13.49745 0.23637,5.45282 1.28712,2.87887 -6.47721,6.5856 0,0 6.65909,-3.38764 6.65909,-3.38764 l 0,0 c -7.949,4.32899 -6.52808,5.62758 -6.67954,0.14684 -0.13228,-4.53722 -0.35529,-9.07062 -0.58689,-13.60373 -0.27792,-7.49651 0.0948,-14.99195 0.37161,-22.48435 0.30627,-7.7444 0.69205,-15.48626 0.85088,-23.23553 -0.0224,-3.07467 -0.037,-6.14972 -0.10085,-9.22385 0,0 6.61932,-3.3727 6.61932,-3.3727 z"
       inkscape:connector-curvature="0"
       style="fill:#008080" />
    <path
       id="path3372"
       d="m 354.95292,273.26139 c 3.21833,0.60728 6.5148,0.70337 9.7806,0.83051 3.50734,0.22739 6.99892,-0.15839 10.47619,-0.56389 0,0 -5.79399,4.30931 -5.79399,4.30931 l 0,0 c -3.50358,0.37763 -7.0192,0.71883 -10.54761,0.48014 -3.33113,-0.13825 -6.6676,-0.29736 -9.97298,-0.75643 0,0 6.05779,-4.29964 6.05779,-4.29964 z"
       inkscape:connector-curvature="0"
       style="fill:#008080" />
    <path
       id="path3374"
       d="m 353.42885,302.67363 c 3.43074,0.15363 6.85101,-0.10803 10.26972,-0.36138 7.46228,-0.6715 14.93056,-1.26677 22.4098,-1.71422 3.80302,-0.23441 7.61057,-0.3578 11.41992,-0.41251 1.29861,-0.013 0.67453,-0.0396 1.8728,0.0659 0,0 -6.00816,4.30014 -6.00816,4.30014 l 0,0 c -1.14165,-0.0612 -0.5419,-0.0428 -1.79951,-0.0466 -3.72695,0.007 -7.45349,0.0983 -11.1763,0.27697 -7.49727,0.39205 -14.97951,0.9764 -22.44627,1.76244 -3.51295,0.30418 -7.02345,0.54943 -10.55222,0.49598 0,0 6.01022,-4.36667 6.01022,-4.36667 z"
       inkscape:connector-curvature="0"
       style="fill:#008080" />
    <path
       id="path3376"
       d="m 394.74259,336.18838 c 2.08925,-8.29866 4.53959,-16.50237 6.96001,-24.70902 3.3508,-11.42847 7.28341,-22.67022 11.97958,-33.61388 1.26013,-2.74787 2.55291,-5.49146 4.08728,-8.10002 0.1191,-0.20248 1.3073,-2.19646 1.73319,-2.46716 2.26909,-1.44225 4.67268,-2.66111 7.00903,-3.99166 0.31381,0.23252 0.68553,0.4025 0.94144,0.69756 1.35386,1.56101 2.21791,4.93821 2.79271,6.78595 1.30869,4.20686 1.54355,5.20935 2.78825,9.70722 2.59896,9.30689 5.07811,18.65228 8.09437,27.83632 1.80114,5.48413 2.51765,7.26383 4.47661,12.52992 1.39863,3.73474 3.02638,7.37461 4.67389,11.00368 0.40734,0.8973 0.98891,1.90592 1.1937,2.8994 -7.3138,3.44732 -5.13567,5.08298 -7.77769,2.50686 0,0 6.25137,-3.87853 6.25137,-3.87853 l 0,0 c 2.65832,2.16724 1.09038,0.46565 -5.22752,4.56704 0.49032,-0.0635 0.29145,0.0329 -0.0167,-0.89095 -0.19339,-0.57989 -0.41722,-1.14923 -0.63501,-1.72041 -1.43077,-3.75243 -2.96351,-7.4662 -4.28652,-11.25954 -1.80266,-5.10454 -2.63767,-7.36942 -4.34354,-12.63642 -2.97382,-9.18189 -5.51571,-18.49323 -8.32804,-27.72418 -1.36653,-4.48363 -1.57955,-5.36415 -3.03717,-9.53072 -0.46552,-1.33068 -1.60188,-5.06657 -2.80843,-6.16758 -0.14481,-0.13213 -0.37832,-0.10293 -0.56749,-0.1544 1.85609,-1.13964 3.65296,-2.3819 5.56826,-3.41893 0.36962,-0.20013 -0.63008,0.56196 -0.89475,0.88847 -2.32382,2.86683 -3.6737,6.44217 -5.42004,9.6452 -4.90707,10.89872 -8.9813,22.14127 -12.25112,33.64186 -2.29379,8.05853 -4.65351,16.1252 -6.29309,24.34734 0,0 -6.66264,3.20658 -6.66264,3.20658 z"
       inkscape:connector-curvature="0"
       style="fill:#aa0000" />
    <path
       id="path3378"
       d="m 414.49319,302.42083 c 5.30358,-1.36903 10.62751,-2.65911 15.94582,-3.96982 4.2327,-1.06651 2.18734,-0.55298 6.13589,-1.54128 0,0 -5.64928,4.31661 -5.64928,4.31661 l 0,0 c -3.89161,0.94234 -1.87048,0.44777 -6.06279,1.48609 -5.43077,1.34502 -10.86867,2.67457 -16.24615,4.22177 0,0 5.87651,-4.51337 5.87651,-4.51337 z"
       inkscape:connector-curvature="0"
       style="fill:#aa0000" />
    <path
       id="path3380"
       d="m 477.83226,278.12196 c 0.13501,-0.49031 -3.32859,1.47268 -2.5477,1.00078 8.69496,-5.25449 3.2246,-1.81087 1.74365,-0.56657 -2.64036,2.21842 -3.31075,3.22862 -5.64316,5.9234 -0.94382,1.39395 -1.9681,2.7367 -2.83144,4.18188 -3.38534,5.66691 -6.27095,13.02827 -6.64472,19.67554 -0.0861,1.53111 0.0949,3.06559 0.14231,4.59839 0.3531,1.42508 0.53536,2.90374 1.05932,4.27524 1.64153,4.29688 4.97825,7.6947 8.80244,10.12707 3.63951,2.31492 5.43682,2.6977 9.50017,4.15586 6.17711,1.8202 12.58789,2.84321 19.03775,2.40996 3.61486,-0.2428 4.48376,-0.55921 7.93804,-1.31044 -2.10059,2.12871 7.76717,-3.5034 6.02767,-2.24913 -1.23206,0.88838 -2.57566,1.66329 -4.00877,2.16669 -0.63705,0.22377 1.06732,-0.83181 1.55069,-1.30326 0.96473,-0.94095 1.14621,-1.36053 1.82309,-2.44316 0.48209,-0.84524 0.70847,-1.75942 0.89115,-2.70151 0,0 6.64151,-3.24055 6.64151,-3.24055 l 0,0 c -0.16214,1.03064 -0.36826,2.03645 -0.85126,2.97697 -0.65373,1.1575 -0.86053,1.66842 -1.81362,2.68746 -2.60738,2.78779 -6.83191,4.64837 -9.80192,6.26376 -0.86546,0.47073 -1.79774,0.81381 -2.72984,1.13287 -1.07929,0.36943 -2.19585,0.61934 -3.29378,0.92901 -3.44732,0.67496 -4.35395,0.97522 -7.95199,1.15461 -6.48069,0.3231 -12.89467,-0.79361 -19.07716,-2.68205 -4.13013,-1.50658 -5.97809,-1.91494 -9.67827,-4.29146 -3.94667,-2.53483 -7.37248,-6.05999 -9.07495,-10.50136 -0.54307,-1.41676 -0.73702,-2.9437 -1.10553,-4.41555 -0.0538,-1.57269 -0.24341,-3.1466 -0.16155,-4.71808 0.34561,-6.63519 3.25723,-14.23624 6.52841,-19.95893 0.83121,-1.45413 1.81528,-2.81538 2.72293,-4.22306 0.93143,-1.12945 1.81338,-2.30159 2.79429,-3.38834 3.95038,-4.37664 7.73003,-6.2023 13.16443,-9.18264 0.51221,-0.28091 1.06813,-0.47925 1.62416,-0.65844 0.38345,-0.12357 0.78884,-0.16419 1.18326,-0.24629 0,0 -5.95961,4.42133 -5.95961,4.42133 z"
       inkscape:connector-curvature="0"
       style="fill:#008000" />
    <path
       id="path3382"
       d="m 531.17187,272.41553 c -1.15151,8.56294 -2.03164,17.15326 -2.74853,25.76242 -0.50043,8.87234 -1.29426,17.77255 -0.9058,26.66827 0.18523,4.24176 0.4655,5.8065 0.98783,9.8872 0.48417,2.80905 0.97269,5.64171 1.85981,8.35929 0.12265,0.37571 0.27669,0.74075 0.43199,1.10419 0.0767,0.1794 0.43646,0.43308 0.2632,0.52276 -2.13474,1.10493 -4.43474,1.85607 -6.65212,2.7841 -0.43014,-1.78984 -0.18606,-0.84948 -0.7443,-2.81794 0,0 6.39185,-3.49345 6.39185,-3.49345 l 0,0 c 0.61534,1.97097 0.32481,1.02972 0.87318,2.82326 -2.11281,1.44492 -4.11351,3.06925 -6.33842,4.33476 -0.18657,0.10612 -0.1504,-0.40222 -0.21622,-0.60652 -0.40404,-1.25416 -0.53205,-1.76321 -0.82851,-3.18552 -0.58355,-2.79964 -0.66312,-3.60935 -1.13098,-6.63006 -0.44263,-4.00282 -0.72168,-5.89771 -0.86824,-10.03122 -0.31719,-8.94599 0.61286,-17.87576 1.04118,-26.80054 0.56339,-8.46584 1.27087,-16.91814 1.95884,-25.37437 0,0 6.62524,-3.30663 6.62524,-3.30663 z"
       inkscape:connector-curvature="0"
       style="fill:#aa0000" />
    <path
       id="path3384"
       d="m 517.4599,276.16862 c 3.48804,0.0575 6.97686,0.0648 10.46531,0.0713 6.28114,-0.074 12.51641,-0.95626 18.67967,-2.11058 0,0 -5.65378,4.26398 -5.65378,4.26398 l 0,0 c -6.22544,1.08044 -12.51058,1.99164 -18.83995,2.07075 -3.55384,0.006 -7.10801,0.0147 -10.66146,0.0713 0,0 6.01021,-4.36667 6.01021,-4.36667 z"
       inkscape:connector-curvature="0"
       style="fill:#aa0000" />
    <path
       id="path3386"
       d="m 588.77467,274.52943 c -3.23628,-0.14369 -6.47435,0.35455 -9.50777,1.50998 -0.85091,0.32412 -1.66083,0.74701 -2.49125,1.12051 1.21429,-0.68498 2.28659,-1.7321 3.64285,-2.05495 0.95161,-0.22653 -1.61636,1.10932 -2.35662,1.74877 -2.43846,2.1064 -4.37544,4.79178 -5.82354,7.65681 -0.56485,1.11752 -1.00148,2.29536 -1.50222,3.44303 -1.66183,4.84442 -2.92617,10.0771 -1.80808,15.20881 0.74463,3.41765 1.43723,3.9692 3.25871,6.90646 4.86235,5.83977 11.69633,8.16363 18.28588,11.36981 1.15922,0.56403 2.28728,1.18999 3.43092,1.78498 3.9147,2.36752 7.22536,5.6715 8.82008,10.03025 0.21118,0.57721 0.34717,1.17921 0.52076,1.76881 0.0877,0.54483 0.23064,1.08361 0.26305,1.63449 0.16516,2.80639 -1.28787,5.25341 -3.19874,7.19944 -0.77344,0.78767 -1.65275,1.46389 -2.47913,2.19583 -5.5931,3.98831 -11.59599,7.49419 -18.11889,9.70942 -4.99179,1.69524 -10.1391,2.70705 -15.30646,3.6739 -4.94415,0.73761 -9.94449,1.50833 -14.96085,1.2129 -2.62623,-0.15467 -3.06474,-0.3226 -5.55087,-0.8105 -2.50872,-0.67676 -4.94067,-1.63582 -6.76671,-3.52954 0,0 6.31175,-3.84304 6.31175,-3.84304 l 0,0 c 1.66295,1.80431 4.00349,2.63953 6.32171,3.27965 0.83387,0.16004 1.6606,0.36322 2.50159,0.48013 5.86813,0.81572 11.79868,-0.0557 17.60541,-0.91474 5.14392,-0.96579 10.24614,-1.98912 15.19221,-3.75412 1.63895,-0.58487 3.13662,-1.57996 4.82979,-1.98172 0.73005,-0.17323 -2.49214,1.6713 -1.85454,1.27575 1.10247,-0.68396 2.16673,-1.42769 3.25009,-2.14153 2.67982,-2.26729 5.84607,-4.75922 5.78103,-8.65268 -0.009,-0.52468 -0.1303,-1.04138 -0.19546,-1.56207 -0.15189,-0.56765 -0.26744,-1.14629 -0.45568,-1.70295 -1.43571,-4.24564 -4.58178,-7.44371 -8.35315,-9.73976 -1.12236,-0.59477 -2.22911,-1.21998 -3.36708,-1.7843 -6.63256,-3.28906 -13.65673,-5.78157 -18.5289,-11.69534 -1.90278,-3.05463 -2.61562,-3.62387 -3.42216,-7.17068 -1.18818,-5.22504 0.0315,-10.54952 1.63953,-15.52378 0.47726,-1.16701 0.89068,-2.36223 1.4318,-3.50105 0.95154,-2.00261 2.16087,-3.95369 3.56829,-5.67075 3.44465,-4.2025 8.22248,-6.43009 12.98697,-8.96987 0.85251,-0.35572 1.68701,-0.75812 2.55753,-1.06714 3.16649,-1.12407 6.50061,-1.52811 9.84535,-1.49644 0,0 -5.9972,4.35722 -5.9972,4.35722 z"
       inkscape:connector-curvature="0"
       style="fill:#008080" />
    <path
       style="fill:#d40000"
       id="path3500"
       d="m 209.58539,345.11538 c 32.87737,3.44623 65.94576,4.68001 98.95627,6.12586 55.78237,2.54395 111.71224,3.99979 167.25837,10.13618 6.94535,0.76728 13.85669,1.81627 20.78504,2.72441 0.90497,0.19375 16.98082,2.4652 19.94939,6.00461 0.80693,0.9621 0.50708,3.00739 -0.51903,3.73117 -6.3404,4.4723 -13.37396,7.94447 -20.47301,11.07587 -1.88789,0.83276 -19.89521,4.62949 -21.6238,5.00447 8.55626,-6.77553 -20.78854,7.56244 -16.36061,4.09823 3.48236,-2.72444 7.63593,-4.56356 11.78996,-6.07799 0.8751,-0.31903 1.76093,0.63086 2.6761,0.80412 4.77099,0.90323 17.71122,2.59688 21.54779,3.12263 6.61063,0.99889 18.18364,2.49118 24.81812,4.43398 2.94468,0.86229 10.05676,2.65342 10.45063,7.46188 0.36713,4.4821 -4.53781,7.59825 -7.07333,9.9586 -10.42885,7.25826 -21.73977,13.20073 -32.73682,19.5136 -3.47429,1.99442 6.89711,-4.08264 10.43381,-5.96418 0.86059,-0.45784 -1.64009,1.0624 -2.3902,1.68495 -0.3798,0.31521 -0.6525,0.74072 -0.97875,1.11107 0,0 -14.17249,6.39332 -14.17249,6.39332 l 0,0 c 0.51655,-1.98109 0.19497,-1.98343 2.38096,-3.32934 5.83019,-3.58964 11.83089,-6.89507 17.71458,-10.39632 3.05978,-1.82081 -6.16462,3.56482 -9.24254,5.3548 -4.4471,2.58623 18.83693,-10.80282 13.20204,-7.99335 1.98986,-1.49489 4.11848,-2.82104 5.96958,-4.48468 1.11719,-1.00406 2.91757,-1.96564 2.87833,-3.46721 -0.0365,-1.39677 -1.78188,-2.28261 -3.04424,-2.88156 -2.62918,-1.24746 -5.52235,-1.86673 -8.35641,-2.5277 -4.79883,-1.1192 -20.36038,-3.57937 -24.88585,-4.32073 -4.26191,-0.84338 -15.46784,-2.60841 -20.11819,-4.94415 -1.54554,-0.77628 -5.01786,-2.19259 -3.855,-3.47285 8.87428,-9.77024 21.73296,-12.34868 33.73591,-14.99862 3.63418,-0.76958 7.27469,-1.50985 10.90254,-2.30873 3.24731,-0.71508 7.91191,-5.02213 9.7222,-2.233 1.7174,2.64604 -4.67651,4.24096 -7.14049,6.21069 -0.31004,0.24786 1.00231,-0.86289 0.63308,-1.00859 -2.41708,-0.95375 -5.03142,-1.33848 -7.59866,-1.73995 -5.01578,-0.78437 -10.08128,-1.20874 -15.12192,-1.81312 -7.35003,-0.58438 -14.69467,-1.24093 -22.05008,-1.75315 -55.86712,-3.89053 -111.84775,-5.92184 -167.71819,-9.75532 -22.94662,-1.73157 -31.17169,-2.15856 -53.05281,-4.47273 -13.39739,-1.41693 -26.86093,-3.03183 -39.98541,-6.16253 0,0 12.69313,-8.84464 12.69313,-8.84464 z"
       inkscape:connector-curvature="0" />
  </g>
</svg>
